<svg width="66" height="80" viewBox="0 0 66 80" fill="none" xmlns="http://www.w3.org/2000/svg">
<path d="M52.127 -0.00012207C59.5257 -0.00012207 65.5457 6.01969 65.5459 13.4208V66.579C65.5459 73.979 59.5258 79.9999 52.127 79.9999H13.875C6.47392 79.9997 0.454124 73.9788 0.454102 66.579V23.0341L1.90918 21.578L22.0312 1.45496L23.4863 -0.00012207H52.127ZM25.5469 18.0497C25.5469 21.9391 22.3912 25.0927 18.5029 25.0927H5.42285V66.579C5.42296 71.2471 9.20585 75.03 13.875 75.0302H52.127C56.7941 75.0302 60.578 71.2472 60.5781 66.579V13.4208C60.5779 8.7525 56.794 4.9696 52.127 4.9696H25.5469V18.0497ZM19.4951 39.2645C21.6596 39.2645 23.2505 40.2615 23.9727 41.5565C24.1429 41.8531 24.25 42.151 24.25 42.4901C24.2499 43.3169 23.6127 43.8905 22.8271 43.8905C22.2971 43.8904 21.8714 43.6782 21.4482 43.0839C20.9178 42.3628 20.4071 42.0233 19.4951 42.0233C18.328 42.0234 17.6496 42.6387 17.3311 43.6151C17.1611 44.1452 17.0977 44.6553 17.0977 46.7137C17.0977 48.7718 17.161 49.2814 17.3311 49.8114C17.6496 50.7877 18.328 51.4031 19.4951 51.4032C20.4071 51.4032 20.9179 51.0639 21.4482 50.3417C21.8715 49.7482 22.2971 49.5361 22.8271 49.536C23.6126 49.536 24.25 50.1083 24.25 50.9364C24.25 51.2756 24.143 51.5733 23.9727 51.87C23.2505 53.165 21.6596 54.162 19.4951 54.162C16.9686 54.1619 15.1006 52.9743 14.3369 50.618C14.04 49.6635 13.9355 48.9198 13.9355 46.7128C13.9356 44.5062 14.0402 43.7631 14.3369 42.8085C15.1006 40.452 16.9686 39.2646 19.4951 39.2645ZM31.7842 39.2635C33.377 39.2635 34.9677 39.6883 35.8164 40.2186C36.3269 40.5372 36.5605 40.9612 36.5605 41.4706C36.5605 42.256 35.9649 42.829 35.2012 42.829C34.9045 42.829 34.5858 42.744 34.2891 42.5956C33.5886 42.2564 32.6959 42.0009 31.8057 42.0009C30.5316 42.001 29.8535 42.6387 29.8535 43.5507C29.8536 44.3578 30.4271 44.909 32.1025 45.1425L32.8662 45.2489C35.8596 45.6733 37.4092 47.0098 37.4092 49.62C37.4092 52.2307 35.4979 54.1618 31.7432 54.162C29.7054 54.162 28.1558 53.5251 27.2002 52.9315C26.7138 52.6132 26.4581 52.1244 26.458 51.6161C26.458 50.8515 27.0514 50.2354 27.8584 50.2352C28.1966 50.2352 28.5152 50.3418 28.7705 50.4911C29.9597 51.1489 30.8087 51.4247 31.8691 51.4247C33.3965 51.4247 34.2254 50.7246 34.2256 49.7264C34.2256 48.8777 33.7152 48.3476 31.998 48.1141L31.2324 48.0077C28.2824 47.6041 26.6699 46.2251 26.6699 43.6776C26.67 41.0244 28.664 39.2636 31.7842 39.2635ZM44.8389 39.2635C46.4294 39.2636 48.0224 39.6883 48.8711 40.2186C49.3792 40.5371 49.6122 40.9613 49.6123 41.4706C49.6123 42.2559 49.0193 42.8288 48.2559 42.829C47.9591 42.829 47.6397 42.744 47.3408 42.5956C46.6427 42.2565 45.7506 42.0009 44.8584 42.0009C43.5865 42.0009 42.9072 42.6386 42.9072 43.5507C42.9074 44.3579 43.4796 44.909 45.1572 45.1425L45.9209 45.2489C48.9124 45.6733 50.4618 47.0098 50.4619 49.62C50.4619 52.2308 48.5523 54.162 44.7949 54.162C42.7597 54.1619 41.2106 53.525 40.2549 52.9315C39.7663 52.6132 39.5109 52.1244 39.5107 51.6161C39.5107 50.8514 40.1061 50.2353 40.9111 50.2352C41.2514 50.2352 41.5699 50.3418 41.8252 50.4911C43.0122 51.1489 43.8613 51.4247 44.9238 51.4247C46.4512 51.4247 47.2782 50.7246 47.2783 49.7264C47.2783 48.8778 46.7698 48.3476 45.0508 48.1141L44.2861 48.0077C41.3364 47.604 39.7236 46.225 39.7236 43.6776C39.7237 41.0244 41.7188 39.2635 44.8389 39.2635Z" fill="url(#paint0_linear_21_370)"/>
<defs>
<linearGradient id="paint0_linear_21_370" x1="1.346" y1="10.55" x2="57.646" y2="76.6" gradientUnits="userSpaceOnUse">
<stop stopColor="#4A4A4A"/>
<stop offset="0.1875" stopColor="#CECECE"/>
<stop offset="0.370192" stopColor="#666666"/>
<stop offset="0.629808" stopColor="#9D9D9D"/>
<stop offset="0.793269" stopColor="#CECECE"/>
<stop offset="0.860577" stopColor="#666666"/>
</linearGradient>
</defs>
</svg>
