<svg width="63" height="62" viewBox="0 0 63 62" fill="none" xmlns="http://www.w3.org/2000/svg">
<rect x="2.15841" y="1.18812" width="51.6832" height="57.6238" rx="4.75248" fill="white" fill-opacity="0.6"/>
<rect x="2.15841" y="1.18812" width="51.6832" height="57.6238" rx="4.75248" stroke="white" strokeWidth="2.37624"/>
<path d="M53.8416 35.6436C52.4554 35.2475 48.2574 35.6436 44.9307 35.6436" stroke="#0BA288" strokeWidth="2.37624"/>
<g filter="url(#filter0_d_14_41)">
<path d="M11.0693 26.7327L21.9703 11L45.5247 11V26.7327V51.0891H17.6584L11.0693 44.5V26.7327Z" fill="#D9D9D9"/>
<path d="M11.0693 11H18.4703L11.0693 21.5V11Z" fill="#D9D9D9"/>
<path d="M23.9703 20H40.4703M23.9703 27H40.4703M21.9703 11L11.0693 26.7327V44.5L17.6584 51.0891H45.5247V26.7327V11L21.9703 11ZM18.4703 11H11.0693V21.5L18.4703 11Z" stroke="black" strokeWidth="2.37624"/>
</g>
<ellipse cx="34.8317" cy="37.4258" rx="2.9703" ry="4.15842" fill="#0BA288"/>
<path d="M34.8317 37.4257C38.721 42.1782 48.6002 50.0198 57.0023 43.3663C65.4044 36.7129 60.5743 35.8416 53.2475 35.6436" stroke="#0BA288" strokeWidth="2.37624"/>
<defs>
<filter id="filter0_d_14_41" x="5.1287" y="9.81187" width="46.3366" height="51.9703" filterUnits="userSpaceOnUse" color-interpolation-filters="sRGB">
<feFlood flood-opacity="0" result="BackgroundImageFix"/>
<feColorMatrix in="SourceAlpha" type="matrix" values="0 0 0 0 0 0 0 0 0 0 0 0 0 0 0 0 0 0 127 0" result="hardAlpha"/>
<feOffset dy="4.75248"/>
<feGaussianBlur stdDeviation="2.37624"/>
<feComposite in2="hardAlpha" operator="out"/>
<feColorMatrix type="matrix" values="0 0 0 0 0 0 0 0 0 0 0 0 0 0 0 0 0 0 0.25 0"/>
<feBlend mode="normal" in2="BackgroundImageFix" result="effect1_dropShadow_14_41"/>
<feBlend mode="normal" in="SourceGraphic" in2="effect1_dropShadow_14_41" result="shape"/>
</filter>
</defs>
</svg>
