<svg width="80" height="80" viewBox="0 0 80 80" fill="none" xmlns="http://www.w3.org/2000/svg">
<path d="M33.4331 6.66675C35.4528 6.66675 37.0712 6.66689 38.4331 6.72241C38.3885 6.98866 38.3648 7.26031 38.3638 7.53491L38.3335 16.9832C38.3332 20.6401 38.3328 23.8722 38.6831 26.4773C39.0628 29.301 39.9344 32.1243 42.2388 34.4285C44.5428 36.7328 47.3663 37.6045 50.1899 37.9841C52.7952 38.3344 56.0272 38.3341 59.6841 38.3337H73.1919C73.3339 40.1147 73.3335 42.3004 73.3335 45.2097V46.6667C73.3335 59.2374 73.3336 65.5235 69.4282 69.4285C65.5232 73.3337 59.2371 73.3337 46.6665 73.3337H33.3335C20.7627 73.3337 14.477 73.3338 10.5718 69.4285C6.66654 65.5235 6.6665 59.2374 6.6665 46.6667V33.3337C6.6665 20.763 6.66663 14.4773 10.5718 10.572C14.477 6.66679 20.7961 6.66675 33.4331 6.66675ZM21.6665 30.8337C17.5245 30.8339 14.1665 34.1918 14.1665 38.3337C14.1666 40.2546 14.8891 42.0068 16.0767 43.3337C14.8891 44.6607 14.1665 46.4128 14.1665 48.3337C14.1666 50.2546 14.8891 52.0068 16.0767 53.3337C14.8891 54.6607 14.1665 56.4128 14.1665 58.3337C14.1666 62.4755 17.5246 65.8336 21.6665 65.8337C25.8086 65.8337 29.1664 62.4756 29.1665 58.3337V55.407C29.9484 55.6833 30.79 55.8337 31.6665 55.8337C35.8084 55.8337 39.1664 52.4756 39.1665 48.3337C39.1665 46.4129 38.4449 44.6607 37.2573 43.3337C38.4449 42.0068 39.1664 40.2546 39.1665 38.3337C39.1665 34.1917 35.8085 30.8337 31.6665 30.8337H21.6665ZM24.1665 58.3337C24.1664 59.7143 23.0471 60.8337 21.6665 60.8337C20.286 60.8336 19.1666 59.7142 19.1665 58.3337C19.1665 56.9532 20.2859 55.8339 21.6665 55.8337H24.1665V58.3337ZM24.1665 50.8337H21.6665C20.286 50.8336 19.1666 49.7142 19.1665 48.3337C19.1665 46.9532 20.2859 45.8339 21.6665 45.8337H24.1665V50.8337ZM31.6665 45.8337C33.0472 45.8337 34.1665 46.9531 34.1665 48.3337C34.1664 49.7143 33.0471 50.8337 31.6665 50.8337C30.286 50.8336 29.1666 49.7142 29.1665 48.3337C29.1665 46.9532 30.2859 45.8339 31.6665 45.8337ZM24.1665 40.8337H21.6665C20.286 40.8336 19.1666 39.7142 19.1665 38.3337C19.1665 36.9532 20.2859 35.8339 21.6665 35.8337H24.1665V40.8337ZM31.6665 35.8337C33.0472 35.8337 34.1665 36.9531 34.1665 38.3337C34.1664 39.7143 33.0471 40.8337 31.6665 40.8337H29.1665V35.8337H31.6665ZM43.3638 7.55249C45.6704 8.43756 47.5507 10.1289 51.3101 13.5125L64.5054 25.3894C68.561 29.0394 70.7254 30.9863 71.9341 33.3337H60.0005C52.1438 33.3337 48.2149 33.3341 45.7739 30.8933C43.3333 28.4525 43.3335 24.5235 43.3335 16.6667L43.3638 7.55249Z" fill="url(#paint0_linear_21_382)"/>
<defs>
<linearGradient id="paint0_linear_21_382" x1="7.57998" y1="15.4585" x2="52.0832" y2="79.6267" gradientUnits="userSpaceOnUse">
<stop stopColor="#4A4A4A"/>
<stop offset="0.1875" stopColor="#CECECE"/>
<stop offset="0.370192" stopColor="#666666"/>
<stop offset="0.629808" stopColor="#9D9D9D"/>
<stop offset="0.793269" stopColor="#CECECE"/>
<stop offset="0.860577" stopColor="#666666"/>
</linearGradient>
</defs>
</svg>
