<svg width="66" height="81" viewBox="0 0 66 81" fill="none" xmlns="http://www.w3.org/2000/svg">
<g filter="url(#filter0_d_21_279)">
<path d="M52.1269 -0.00012207C59.5257 -0.00012207 65.5456 6.01969 65.5458 13.4208V66.579C65.5458 73.979 59.5258 79.9999 52.1269 79.9999H13.8749C6.47386 79.9997 0.454063 73.9788 0.454041 66.579V23.0341L1.90912 21.578L22.0312 1.45496L23.4863 -0.00012207H52.1269ZM25.5468 18.0497C25.5468 21.9391 22.3911 25.0927 18.5029 25.0927H5.42279V66.579C5.4229 71.2471 9.20579 75.03 13.8749 75.0302H52.1269C56.794 75.0302 60.578 71.2472 60.5781 66.579V13.4208C60.5779 8.7525 56.794 4.9696 52.1269 4.9696H25.5468V18.0497ZM18.4941 39.5604C19.31 39.5604 19.8991 40.1311 19.8994 41.0419V51.2216C19.8992 52.1322 19.31 52.702 18.4941 52.702C17.6979 52.7019 17.1095 52.1321 17.1093 51.2216V47.4237C17.1093 47.3471 17.0693 47.3085 16.9951 47.3085H12.7773C12.7034 47.3086 12.664 47.3475 12.664 47.4237V51.2216C12.6638 52.1322 12.0572 52.702 11.2587 52.702C10.443 52.7018 9.87415 52.1321 9.87396 51.2216V41.0419C9.87417 40.1314 10.4627 39.5606 11.2783 39.5604C12.0745 39.5604 12.6638 40.1311 12.664 41.0419V44.7069C12.664 44.7831 12.7034 44.821 12.7773 44.8212H16.9951C17.0693 44.8212 17.1093 44.7833 17.1093 44.7069V41.0419C17.1095 40.1313 17.6979 39.5605 18.4941 39.5604ZM29.7578 39.6757C30.6107 39.6757 31.163 40.1879 31.163 40.9286C31.163 41.6496 30.6107 42.1628 29.7578 42.163H27.5732C27.4969 42.163 27.4599 42.201 27.4599 42.2762V51.2216C27.4597 52.1136 26.8706 52.702 26.0546 52.702C25.2562 52.702 24.6671 52.1136 24.6669 51.2216V42.2762C24.6669 42.201 24.6298 42.163 24.5536 42.163H22.3691C21.5162 42.1628 20.9648 41.6496 20.9648 40.9286C20.9649 40.1881 21.5163 39.6758 22.3691 39.6757H29.7578ZM42.7265 39.5604C43.6582 39.5604 44.2477 40.2067 44.248 41.2323V51.3544C44.2479 52.2085 43.7351 52.702 42.9736 52.702C42.2144 52.7019 41.7021 52.2084 41.7021 51.3544V45.1249H41.6083L39.6132 49.7577C39.2138 50.6697 38.8908 50.9364 38.2451 50.9364C37.5993 50.9363 37.2768 50.6696 36.8798 49.7577L34.8652 45.1249H34.7714V51.3544C34.7714 52.2083 34.2394 52.7018 33.5175 52.702C32.7582 52.702 32.2256 52.2085 32.2255 51.3544V41.2323C32.2255 40.2068 32.8342 39.5604 33.7636 39.5604C34.599 39.5605 35.0547 40.0169 35.4911 41.0038L38.2451 47.2323H38.3212L41.0185 41.0038C41.4351 40.0169 41.8913 39.5606 42.7265 39.5604ZM47.7431 39.5604C48.5394 39.5604 49.1287 40.1495 49.1288 41.0419V49.9862C49.129 50.0624 49.166 50.1004 49.2421 50.1005H53.8378C54.6929 50.1006 55.2427 50.6131 55.2431 51.3339C55.2431 52.0744 54.6932 52.5877 53.8378 52.5878H47.7431C46.8879 52.5876 46.3388 52.0181 46.3388 51.1825V41.0419C46.3389 40.1497 46.9251 39.5606 47.7431 39.5604Z" fill="url(#paint0_linear_21_279)"/>
</g>
<defs>
<filter id="filter0_d_21_279" x="0.0540405" y="-0.00012207" width="65.8919" height="80.8" filterUnits="userSpaceOnUse" color-interpolation-filters="sRGB">
<feFlood flood-opacity="0" result="BackgroundImageFix"/>
<feColorMatrix in="SourceAlpha" type="matrix" values="0 0 0 0 0 0 0 0 0 0 0 0 0 0 0 0 0 0 127 0" result="hardAlpha"/>
<feOffset dy="0.4"/>
<feGaussianBlur stdDeviation="0.2"/>
<feComposite in2="hardAlpha" operator="out"/>
<feColorMatrix type="matrix" values="0 0 0 0 0 0 0 0 0 0 0 0 0 0 0 0 0 0 0.25 0"/>
<feBlend mode="normal" in2="BackgroundImageFix" result="effect1_dropShadow_21_279"/>
<feBlend mode="normal" in="SourceGraphic" in2="effect1_dropShadow_21_279" result="shape"/>
</filter>
<linearGradient id="paint0_linear_21_279" x1="1.34594" y1="10.55" x2="57.6459" y2="76.6" gradientUnits="userSpaceOnUse">
<stop stopColor="#4A4A4A"/>
<stop offset="0.1875" stopColor="#CECECE"/>
<stop offset="0.370192" stopColor="#666666"/>
<stop offset="0.629808" stopColor="#9D9D9D"/>
<stop offset="0.793269" stopColor="#A2A2A2"/>
<stop offset="0.860577" stopColor="#666666"/>
</linearGradient>
</defs>
</svg>
