<svg width="66" height="80" viewBox="0 0 66 80" fill="none" xmlns="http://www.w3.org/2000/svg">
<path d="M52.127 -0.00012207C59.5257 -0.00012207 65.5457 6.01969 65.5459 13.4208V66.579C65.5459 73.979 59.5258 79.9999 52.127 79.9999H13.875C6.47392 79.9997 0.454124 73.9788 0.454102 66.579V23.0341L1.90918 21.578L22.0312 1.45496L23.4863 -0.00012207H52.127ZM25.5469 18.0497C25.5469 21.9391 22.3912 25.0927 18.5029 25.0927H5.42285V66.579C5.42296 71.2471 9.20585 75.03 13.875 75.0302H52.127C56.7941 75.0302 60.578 71.2472 60.5781 66.579V13.4208C60.5779 8.7525 56.794 4.9696 52.127 4.9696H25.5469V18.0497ZM28.209 39.37C29.1207 39.3701 29.7801 40.0069 29.7803 41.0243V48.7499C29.7803 52.2944 27.8901 54.162 24.5801 54.162C23.2424 54.162 21.8415 53.6317 21.248 52.952C20.9712 52.6335 20.8232 52.2517 20.8232 51.87C20.8233 51.1272 21.4167 50.5546 22.2021 50.5546C22.5838 50.5547 22.924 50.703 23.3906 51.0214C23.731 51.2548 24.2178 51.4032 24.6846 51.4032C25.8738 51.4032 26.6592 50.7454 26.6592 48.9628V41.0243C26.6594 40.0067 27.3168 39.37 28.209 39.37ZM37.7393 39.2635C39.3297 39.2635 40.9227 39.6883 41.7715 40.2186C42.2798 40.5372 42.5136 40.9612 42.5137 41.4706C42.5137 42.256 41.92 42.829 41.1562 42.829C40.8596 42.829 40.541 42.744 40.2422 42.5956C39.5441 42.2564 38.6511 42.0009 37.7588 42.0009C36.4869 42.0009 35.8086 42.6387 35.8086 43.5507C35.8087 44.3578 36.3801 44.909 38.0576 45.1425L38.8213 45.2489C41.8128 45.6733 43.3621 47.0098 43.3623 49.62C43.3623 52.2307 41.4533 54.1618 37.6963 54.162C35.6606 54.162 34.1109 53.5251 33.1553 52.9315C32.6666 52.6132 32.4113 52.1244 32.4111 51.6161C32.4111 50.8515 33.0066 50.2354 33.8115 50.2352C34.1518 50.2352 34.4713 50.3417 34.7266 50.4911C35.9131 51.1487 36.7618 51.4246 37.8242 51.4247C39.3513 51.4247 40.1786 50.7246 40.1787 49.7264C40.1787 48.8777 39.6703 48.3476 37.9512 48.1141L37.1875 48.0077C34.2377 47.6041 32.625 46.2251 32.625 43.6776C32.6251 41.0244 34.6191 39.2636 37.7393 39.2635Z" fill="url(#paint0_linear_21_364)"/>
<defs>
<linearGradient id="paint0_linear_21_364" x1="1.346" y1="10.55" x2="57.646" y2="76.6" gradientUnits="userSpaceOnUse">
<stop stopColor="#4A4A4A"/>
<stop offset="0.1875" stopColor="#CECECE"/>
<stop offset="0.370192" stopColor="#666666"/>
<stop offset="0.629808" stopColor="#9D9D9D"/>
<stop offset="0.793269" stopColor="#CECECE"/>
<stop offset="0.860577" stopColor="#666666"/>
</linearGradient>
</defs>
</svg>
