<svg width="80" height="80" viewBox="0 0 80 80" fill="none" xmlns="http://www.w3.org/2000/svg">
<path d="M40.0332 15.6823C44.3195 11.6704 52.4363 4.9875 58.6738 8.47525C64.9408 11.9786 63.1633 22.3121 61.749 27.8844C67.4737 29.4809 77.4977 32.9584 77.498 39.9391C77.498 46.8801 67.5161 50.5522 61.9111 52.1559C63.3569 57.7957 64.987 67.9908 58.7285 71.5036C52.4896 75.0051 44.4505 68.4658 40.1367 64.4303C35.8107 68.4861 27.4911 74.9831 21.2061 71.4694C14.9628 67.9774 16.7892 57.9602 18.2402 52.3219C12.4581 50.7216 2.49805 46.9678 2.49805 39.9391C2.49841 32.8906 12.4688 29.4403 18.2852 27.8385C16.8395 22.2312 14.9172 12.0696 21.1523 8.56998C27.414 5.05584 35.7595 11.7104 40.0332 15.6823ZM58.8125 52.944C55.706 53.6403 52.2803 54.1498 48.6543 54.4616C46.593 57.3548 44.4807 59.9606 42.3672 62.2018C45.5529 65.1735 52.468 71.4274 57.123 68.8151C61.7985 66.1909 59.83 56.9333 58.8125 52.944ZM21.3467 53.0827C20.2792 57.2359 18.1514 66.1751 22.8066 68.778C27.4838 71.3927 35.1858 64.7513 37.8916 62.2135C35.7018 59.9346 33.5287 57.3324 31.4541 54.5016C27.8196 54.2159 24.4186 53.7417 21.3467 53.0827ZM44.5254 54.7272C41.5558 54.8557 38.5802 54.8558 35.6104 54.7428C37.0894 56.6325 38.6038 58.3896 40.1221 59.9782C41.5898 58.4112 43.0649 56.6517 44.5254 54.7272ZM46.8398 28.5417C42.2922 28.2054 37.7166 28.2065 33.1689 28.5397C30.5991 32.1911 28.3174 36.0297 26.3428 40.0143C28.327 44.0072 30.6258 47.8532 33.208 51.5104C37.7523 51.7959 42.3234 51.7998 46.8662 51.485C49.3967 47.7993 51.691 43.953 53.6875 39.9704C51.667 36.0216 49.3878 32.1929 46.8398 28.5417ZM24.6426 43.6667C23.6896 45.8584 22.8741 48.0136 22.2119 50.0866C24.3512 50.5381 26.668 50.898 29.124 51.1637C27.5095 48.735 26.0127 46.2329 24.6426 43.6667ZM55.415 43.5553C54.0356 46.1337 52.5357 48.6512 50.9375 51.1081C53.4112 50.8203 55.7589 50.4331 57.9336 49.9518C57.2624 47.9139 56.4175 45.7707 55.415 43.5553ZM19.1455 30.8317C14.8531 32.0085 5.7026 34.6847 5.70215 39.9391C5.70215 45.1971 15.0077 48.1937 19.1006 49.3297C20.0479 46.3351 21.2959 43.1912 22.8008 40.0153C21.3152 36.886 20.0842 33.7913 19.1455 30.8317ZM60.8906 30.8766C59.9679 33.7713 58.7371 36.8299 57.2412 39.9547C58.8085 43.1552 60.0888 46.2541 61.0381 49.1676C65.4591 47.8969 74.2939 45.1744 74.2939 39.9391C74.2935 34.7529 65.0873 32.0563 60.8906 30.8766ZM39.998 33.446C43.6969 33.446 46.6951 36.3533 46.6953 39.9391C46.6953 43.5256 43.697 46.4333 39.998 46.4333C36.2995 46.4333 33.3008 43.5256 33.3008 39.9391C33.301 36.3533 36.2997 33.446 39.998 33.446ZM50.9463 28.9421C52.5328 31.3533 54.0095 33.8329 55.3848 36.3629C56.3335 34.21 57.1389 32.1097 57.7852 30.1012C55.6324 29.6247 53.3393 29.2348 50.9463 28.9421ZM29.0557 28.9372C26.6782 29.2252 24.3958 29.6038 22.2559 30.068C22.9078 32.1053 23.7066 34.2155 24.6396 36.361C25.9911 33.8213 27.4647 31.3431 29.0557 28.9372ZM57.0742 11.1667C52.4439 8.57747 45.4222 14.9603 42.2793 17.8981C44.4228 20.1373 46.5581 22.7248 48.6191 25.57C52.1564 25.892 55.5352 26.4099 58.6465 27.1061C59.668 23.0679 61.7493 13.7819 57.0742 11.1667ZM37.7881 17.9001C34.6851 15.0243 27.4313 8.63501 22.7568 11.2585C18.0878 13.8792 20.226 22.5515 21.3906 27.0739C24.4947 26.3919 27.8713 25.8831 31.3984 25.5661C33.4554 22.7513 35.6093 20.1686 37.7881 17.9001ZM40.0342 20.1198C38.5335 21.69 37.0402 23.4208 35.583 25.2838C38.5362 25.1499 41.4941 25.1503 44.4473 25.2858C42.9914 23.4054 41.5118 21.6719 40.0342 20.1198Z" fill="url(#paint0_linear_21_377)"/>
<defs>
<linearGradient id="paint0_linear_21_377" x1="3.5257" y1="16.0718" x2="44.4378" y2="84.1375" gradientUnits="userSpaceOnUse">
<stop stopColor="#4A4A4A"/>
<stop offset="0.1875" stopColor="#CECECE"/>
<stop offset="0.370192" stopColor="#666666"/>
<stop offset="0.629808" stopColor="#9D9D9D"/>
<stop offset="0.793269" stopColor="#CECECE"/>
<stop offset="0.860577" stopColor="#666666"/>
</linearGradient>
</defs>
</svg>
