<svg width="80" height="80" viewBox="0 0 80 80" fill="none" xmlns="http://www.w3.org/2000/svg">
<path d="M74.7089 15.365L41.8544 74.1143C41.1759 75.327 39.4334 75.3343 38.7446 74.1273L5.23889 15.3705C4.48889 14.055 5.61339 12.4618 7.10389 12.728L39.9939 18.607C40.2037 18.6445 40.4185 18.6442 40.6281 18.606L72.8301 12.7365C74.3156 12.4658 75.4459 14.047 74.7089 15.365Z" fill="url(#paint0_linear_21_387)"/>
<path d="M55.661 5.01726L31.3477 9.78126C31.1534 9.81928 30.9773 9.92081 30.847 10.0699C30.7167 10.219 30.6396 10.4071 30.628 10.6048L29.1325 35.8643C29.0975 36.4593 29.6437 36.921 30.2242 36.787L36.9935 35.225C37.627 35.0788 38.1992 35.6368 38.069 36.2735L36.058 46.1218C35.9225 46.7843 36.5447 47.3513 37.192 47.1548L41.373 45.8843C42.0212 45.6875 42.644 46.256 42.507 46.9193L39.311 62.3885C39.111 63.356 40.398 63.8835 40.9347 63.054L41.2932 62.5L61.105 22.962C61.4367 22.3 60.865 21.5453 60.1375 21.6855L53.17 23.0303C52.515 23.1565 51.958 22.5468 52.1427 21.906L56.6905 6.14101C56.8755 5.49901 56.3165 4.88876 55.661 5.01726Z" fill="url(#paint1_linear_21_387)"/>
<defs>
<linearGradient id="paint0_linear_21_387" x1="5.95833" y1="20.9184" x2="45.6943" y2="85.2088" gradientUnits="userSpaceOnUse">
<stop stopColor="#4A4A4A"/>
<stop offset="0.1875" stopColor="#CECECE"/>
<stop offset="0.370192" stopColor="#666666"/>
<stop offset="0.629808" stopColor="#9D9D9D"/>
<stop offset="0.793269" stopColor="#CECECE"/>
<stop offset="0.860577" stopColor="#666666"/>
</linearGradient>
<linearGradient id="paint1_linear_21_387" x1="38.1044" y1="6.3105" x2="45.5008" y2="57.0492" gradientUnits="userSpaceOnUse">
<stop stopColor="#FFEA83"/>
<stop offset="0.0833" stopColor="#FFDD35"/>
<stop offset="1" stopColor="#FFA800"/>
</linearGradient>
</defs>
</svg>
